<svg xmlns="http://www.w3.org/2000/svg" xmlns:xlink="http://www.w3.org/1999/xlink" width="500" zoomAndPan="magnify" viewBox="0 0 375 374.999991" height="500" preserveAspectRatio="xMidYMid meet" version="1.2"><defs><clipPath id="d4e1843ce5"><path d="M 77.746094 75.941406 L 297.613281 75.941406 L 297.613281 295.808594 L 77.746094 295.808594 Z M 77.746094 75.941406 "/></clipPath><clipPath id="105ee8ec8b"><path d="M 187.679688 75.941406 C 126.964844 75.941406 77.746094 125.160156 77.746094 185.875 C 77.746094 246.589844 126.964844 295.808594 187.679688 295.808594 C 248.394531 295.808594 297.613281 246.589844 297.613281 185.875 C 297.613281 125.160156 248.394531 75.941406 187.679688 75.941406 Z M 187.679688 75.941406 "/></clipPath><linearGradient x1="-0.00000214176" gradientTransform="matrix(0.858853,0,0,0.858853,77.746936,75.941158)" y1="128" x2="255.999987" gradientUnits="userSpaceOnUse" y2="128" id="b49da52844"><stop style="stop-color:#000000;stop-opacity:1;" offset="0"/><stop style="stop-color:#000001;stop-opacity:1;" offset="0.00390625"/><stop style="stop-color:#000002;stop-opacity:1;" offset="0.0078125"/><stop style="stop-color:#010102;stop-opacity:1;" offset="0.0117188"/><stop style="stop-color:#010103;stop-opacity:1;" offset="0.015625"/><stop style="stop-color:#010104;stop-opacity:1;" offset="0.0195313"/><stop style="stop-color:#010105;stop-opacity:1;" offset="0.0234375"/><stop style="stop-color:#010106;stop-opacity:1;" offset="0.0273438"/><stop style="stop-color:#020206;stop-opacity:1;" offset="0.03125"/><stop style="stop-color:#020207;stop-opacity:1;" offset="0.0351562"/><stop style="stop-color:#020208;stop-opacity:1;" offset="0.0390625"/><stop style="stop-color:#020209;stop-opacity:1;" offset="0.0429688"/><stop style="stop-color:#02020a;stop-opacity:1;" offset="0.046875"/><stop style="stop-color:#03030a;stop-opacity:1;" offset="0.0507813"/><stop style="stop-color:#03030b;stop-opacity:1;" offset="0.0546875"/><stop style="stop-color:#03030c;stop-opacity:1;" offset="0.0585938"/><stop style="stop-color:#03030d;stop-opacity:1;" offset="0.0625"/><stop style="stop-color:#04030e;stop-opacity:1;" offset="0.0664063"/><stop style="stop-color:#04040e;stop-opacity:1;" offset="0.0703125"/><stop style="stop-color:#04040f;stop-opacity:1;" offset="0.0742188"/><stop style="stop-color:#040410;stop-opacity:1;" offset="0.078125"/><stop style="stop-color:#040411;stop-opacity:1;" offset="0.0820313"/><stop style="stop-color:#050412;stop-opacity:1;" offset="0.0859375"/><stop style="stop-color:#050512;stop-opacity:1;" offset="0.0898438"/><stop style="stop-color:#050513;stop-opacity:1;" offset="0.09375"/><stop style="stop-color:#050514;stop-opacity:1;" offset="0.0976563"/><stop style="stop-color:#050515;stop-opacity:1;" offset="0.101563"/><stop style="stop-color:#060516;stop-opacity:1;" offset="0.105469"/><stop style="stop-color:#060616;stop-opacity:1;" offset="0.109375"/><stop style="stop-color:#060617;stop-opacity:1;" offset="0.113281"/><stop style="stop-color:#060618;stop-opacity:1;" offset="0.117188"/><stop style="stop-color:#060619;stop-opacity:1;" offset="0.121094"/><stop style="stop-color:#07061a;stop-opacity:1;" offset="0.125"/><stop style="stop-color:#07071a;stop-opacity:1;" offset="0.128906"/><stop style="stop-color:#07071b;stop-opacity:1;" offset="0.132813"/><stop style="stop-color:#07071c;stop-opacity:1;" offset="0.136719"/><stop style="stop-color:#07071d;stop-opacity:1;" offset="0.140625"/><stop style="stop-color:#08071e;stop-opacity:1;" offset="0.144531"/><stop style="stop-color:#08081e;stop-opacity:1;" offset="0.148438"/><stop style="stop-color:#08081f;stop-opacity:1;" offset="0.152344"/><stop style="stop-color:#080820;stop-opacity:1;" offset="0.15625"/><stop style="stop-color:#080821;stop-opacity:1;" offset="0.160156"/><stop style="stop-color:#090822;stop-opacity:1;" offset="0.164063"/><stop style="stop-color:#090922;stop-opacity:1;" offset="0.167969"/><stop style="stop-color:#090923;stop-opacity:1;" offset="0.171875"/><stop style="stop-color:#090924;stop-opacity:1;" offset="0.175781"/><stop style="stop-color:#0a0925;stop-opacity:1;" offset="0.179688"/><stop style="stop-color:#0a0926;stop-opacity:1;" offset="0.183594"/><stop style="stop-color:#0a0a26;stop-opacity:1;" offset="0.1875"/><stop style="stop-color:#0a0a27;stop-opacity:1;" offset="0.191406"/><stop style="stop-color:#0a0a28;stop-opacity:1;" offset="0.195313"/><stop style="stop-color:#0b0a29;stop-opacity:1;" offset="0.199219"/><stop style="stop-color:#0b0a2a;stop-opacity:1;" offset="0.203125"/><stop style="stop-color:#0b0b2a;stop-opacity:1;" offset="0.207031"/><stop style="stop-color:#0b0b2b;stop-opacity:1;" offset="0.210938"/><stop style="stop-color:#0b0b2c;stop-opacity:1;" offset="0.214844"/><stop style="stop-color:#0c0b2d;stop-opacity:1;" offset="0.21875"/><stop style="stop-color:#0c0b2e;stop-opacity:1;" offset="0.222656"/><stop style="stop-color:#0c0c2e;stop-opacity:1;" offset="0.226563"/><stop style="stop-color:#0c0c2f;stop-opacity:1;" offset="0.230469"/><stop style="stop-color:#0c0c30;stop-opacity:1;" offset="0.234375"/><stop style="stop-color:#0d0c31;stop-opacity:1;" offset="0.238281"/><stop style="stop-color:#0d0c32;stop-opacity:1;" offset="0.242188"/><stop style="stop-color:#0d0d32;stop-opacity:1;" offset="0.246094"/><stop style="stop-color:#0d0d33;stop-opacity:1;" offset="0.25"/><stop style="stop-color:#0d0d34;stop-opacity:1;" offset="0.253906"/><stop style="stop-color:#0e0d35;stop-opacity:1;" offset="0.257812"/><stop style="stop-color:#0e0d36;stop-opacity:1;" offset="0.261719"/><stop style="stop-color:#0e0e36;stop-opacity:1;" offset="0.265625"/><stop style="stop-color:#0e0e37;stop-opacity:1;" offset="0.269531"/><stop style="stop-color:#0f0e38;stop-opacity:1;" offset="0.273438"/><stop style="stop-color:#0f0e39;stop-opacity:1;" offset="0.277344"/><stop style="stop-color:#0f0e3a;stop-opacity:1;" offset="0.28125"/><stop style="stop-color:#0f0f3a;stop-opacity:1;" offset="0.285156"/><stop style="stop-color:#0f0f3b;stop-opacity:1;" offset="0.289063"/><stop style="stop-color:#100f3c;stop-opacity:1;" offset="0.292969"/><stop style="stop-color:#100f3d;stop-opacity:1;" offset="0.296875"/><stop style="stop-color:#100f3e;stop-opacity:1;" offset="0.300781"/><stop style="stop-color:#10103e;stop-opacity:1;" offset="0.304688"/><stop style="stop-color:#10103f;stop-opacity:1;" offset="0.308594"/><stop style="stop-color:#111040;stop-opacity:1;" offset="0.3125"/><stop style="stop-color:#111041;stop-opacity:1;" offset="0.316406"/><stop style="stop-color:#111042;stop-opacity:1;" offset="0.320313"/><stop style="stop-color:#111142;stop-opacity:1;" offset="0.324219"/><stop style="stop-color:#111143;stop-opacity:1;" offset="0.328125"/><stop style="stop-color:#121144;stop-opacity:1;" offset="0.332031"/><stop style="stop-color:#121145;stop-opacity:1;" offset="0.335938"/><stop style="stop-color:#121146;stop-opacity:1;" offset="0.339844"/><stop style="stop-color:#121246;stop-opacity:1;" offset="0.34375"/><stop style="stop-color:#121247;stop-opacity:1;" offset="0.347656"/><stop style="stop-color:#131248;stop-opacity:1;" offset="0.351563"/><stop style="stop-color:#131249;stop-opacity:1;" offset="0.355469"/><stop style="stop-color:#13124a;stop-opacity:1;" offset="0.359375"/><stop style="stop-color:#13134a;stop-opacity:1;" offset="0.363281"/><stop style="stop-color:#13134b;stop-opacity:1;" offset="0.367188"/><stop style="stop-color:#14134c;stop-opacity:1;" offset="0.371094"/><stop style="stop-color:#14134d;stop-opacity:1;" offset="0.375"/><stop style="stop-color:#14134e;stop-opacity:1;" offset="0.378906"/><stop style="stop-color:#14144e;stop-opacity:1;" offset="0.382813"/><stop style="stop-color:#15144f;stop-opacity:1;" offset="0.386719"/><stop style="stop-color:#151450;stop-opacity:1;" offset="0.390625"/><stop style="stop-color:#151451;stop-opacity:1;" offset="0.394531"/><stop style="stop-color:#151452;stop-opacity:1;" offset="0.398438"/><stop style="stop-color:#151552;stop-opacity:1;" offset="0.402344"/><stop style="stop-color:#161553;stop-opacity:1;" offset="0.40625"/><stop style="stop-color:#161554;stop-opacity:1;" offset="0.410156"/><stop style="stop-color:#161555;stop-opacity:1;" offset="0.414063"/><stop style="stop-color:#161556;stop-opacity:1;" offset="0.417969"/><stop style="stop-color:#161656;stop-opacity:1;" offset="0.421875"/><stop style="stop-color:#171657;stop-opacity:1;" offset="0.425781"/><stop style="stop-color:#171658;stop-opacity:1;" offset="0.429688"/><stop style="stop-color:#171659;stop-opacity:1;" offset="0.433594"/><stop style="stop-color:#17165a;stop-opacity:1;" offset="0.4375"/><stop style="stop-color:#17175a;stop-opacity:1;" offset="0.441406"/><stop style="stop-color:#18175b;stop-opacity:1;" offset="0.445313"/><stop style="stop-color:#18175c;stop-opacity:1;" offset="0.449219"/><stop style="stop-color:#18175d;stop-opacity:1;" offset="0.453125"/><stop style="stop-color:#18175e;stop-opacity:1;" offset="0.457031"/><stop style="stop-color:#18185f;stop-opacity:1;" offset="0.460938"/><stop style="stop-color:#19185f;stop-opacity:1;" offset="0.464844"/><stop style="stop-color:#191860;stop-opacity:1;" offset="0.46875"/><stop style="stop-color:#191861;stop-opacity:1;" offset="0.472656"/><stop style="stop-color:#191862;stop-opacity:1;" offset="0.476563"/><stop style="stop-color:#191963;stop-opacity:1;" offset="0.480469"/><stop style="stop-color:#1a1963;stop-opacity:1;" offset="0.484375"/><stop style="stop-color:#1a1964;stop-opacity:1;" offset="0.488281"/><stop style="stop-color:#1a1965;stop-opacity:1;" offset="0.492188"/><stop style="stop-color:#1a1966;stop-opacity:1;" offset="0.496094"/><stop style="stop-color:#1b1967;stop-opacity:1;" offset="0.5"/><stop style="stop-color:#1b1a67;stop-opacity:1;" offset="0.503906"/><stop style="stop-color:#1b1a68;stop-opacity:1;" offset="0.507813"/><stop style="stop-color:#1b1a69;stop-opacity:1;" offset="0.511719"/><stop style="stop-color:#1b1a6a;stop-opacity:1;" offset="0.515625"/><stop style="stop-color:#1c1a6b;stop-opacity:1;" offset="0.519531"/><stop style="stop-color:#1c1b6b;stop-opacity:1;" offset="0.523438"/><stop style="stop-color:#1c1b6c;stop-opacity:1;" offset="0.527344"/><stop style="stop-color:#1c1b6d;stop-opacity:1;" offset="0.53125"/><stop style="stop-color:#1c1b6e;stop-opacity:1;" offset="0.535156"/><stop style="stop-color:#1d1b6f;stop-opacity:1;" offset="0.539063"/><stop style="stop-color:#1d1c6f;stop-opacity:1;" offset="0.542969"/><stop style="stop-color:#1d1c70;stop-opacity:1;" offset="0.546875"/><stop style="stop-color:#1d1c71;stop-opacity:1;" offset="0.550781"/><stop style="stop-color:#1d1c72;stop-opacity:1;" offset="0.554688"/><stop style="stop-color:#1e1c73;stop-opacity:1;" offset="0.558594"/><stop style="stop-color:#1e1d73;stop-opacity:1;" offset="0.5625"/><stop style="stop-color:#1e1d74;stop-opacity:1;" offset="0.566406"/><stop style="stop-color:#1e1d75;stop-opacity:1;" offset="0.570312"/><stop style="stop-color:#1e1d76;stop-opacity:1;" offset="0.574219"/><stop style="stop-color:#1f1d77;stop-opacity:1;" offset="0.578125"/><stop style="stop-color:#1f1e77;stop-opacity:1;" offset="0.582031"/><stop style="stop-color:#1f1e78;stop-opacity:1;" offset="0.585938"/><stop style="stop-color:#1f1e79;stop-opacity:1;" offset="0.589844"/><stop style="stop-color:#1f1e7a;stop-opacity:1;" offset="0.59375"/><stop style="stop-color:#201e7b;stop-opacity:1;" offset="0.597656"/><stop style="stop-color:#201f7b;stop-opacity:1;" offset="0.601563"/><stop style="stop-color:#201f7c;stop-opacity:1;" offset="0.605469"/><stop style="stop-color:#201f7d;stop-opacity:1;" offset="0.609375"/><stop style="stop-color:#211f7e;stop-opacity:1;" offset="0.613281"/><stop style="stop-color:#211f7f;stop-opacity:1;" offset="0.617188"/><stop style="stop-color:#21207f;stop-opacity:1;" offset="0.621094"/><stop style="stop-color:#212080;stop-opacity:1;" offset="0.625"/><stop style="stop-color:#212081;stop-opacity:1;" offset="0.628906"/><stop style="stop-color:#222082;stop-opacity:1;" offset="0.632813"/><stop style="stop-color:#222083;stop-opacity:1;" offset="0.636719"/><stop style="stop-color:#222183;stop-opacity:1;" offset="0.640625"/><stop style="stop-color:#222184;stop-opacity:1;" offset="0.644531"/><stop style="stop-color:#222185;stop-opacity:1;" offset="0.648438"/><stop style="stop-color:#232186;stop-opacity:1;" offset="0.652344"/><stop style="stop-color:#232187;stop-opacity:1;" offset="0.65625"/><stop style="stop-color:#232287;stop-opacity:1;" offset="0.660156"/><stop style="stop-color:#232288;stop-opacity:1;" offset="0.664062"/><stop style="stop-color:#232289;stop-opacity:1;" offset="0.667969"/><stop style="stop-color:#24228a;stop-opacity:1;" offset="0.671875"/><stop style="stop-color:#24228b;stop-opacity:1;" offset="0.675781"/><stop style="stop-color:#24238b;stop-opacity:1;" offset="0.679688"/><stop style="stop-color:#24238c;stop-opacity:1;" offset="0.683594"/><stop style="stop-color:#24238d;stop-opacity:1;" offset="0.6875"/><stop style="stop-color:#25238e;stop-opacity:1;" offset="0.691406"/><stop style="stop-color:#25238f;stop-opacity:1;" offset="0.695312"/><stop style="stop-color:#25248f;stop-opacity:1;" offset="0.699219"/><stop style="stop-color:#252490;stop-opacity:1;" offset="0.703125"/><stop style="stop-color:#252491;stop-opacity:1;" offset="0.707031"/><stop style="stop-color:#262492;stop-opacity:1;" offset="0.710938"/><stop style="stop-color:#262493;stop-opacity:1;" offset="0.714844"/><stop style="stop-color:#262593;stop-opacity:1;" offset="0.71875"/><stop style="stop-color:#262594;stop-opacity:1;" offset="0.722656"/><stop style="stop-color:#272595;stop-opacity:1;" offset="0.726563"/><stop style="stop-color:#272596;stop-opacity:1;" offset="0.730469"/><stop style="stop-color:#272597;stop-opacity:1;" offset="0.734375"/><stop style="stop-color:#272697;stop-opacity:1;" offset="0.738281"/><stop style="stop-color:#272698;stop-opacity:1;" offset="0.742188"/><stop style="stop-color:#282699;stop-opacity:1;" offset="0.746094"/><stop style="stop-color:#28269a;stop-opacity:1;" offset="0.75"/><stop style="stop-color:#28269b;stop-opacity:1;" offset="0.753906"/><stop style="stop-color:#28279b;stop-opacity:1;" offset="0.757812"/><stop style="stop-color:#28279c;stop-opacity:1;" offset="0.761719"/><stop style="stop-color:#29279d;stop-opacity:1;" offset="0.765625"/><stop style="stop-color:#29279e;stop-opacity:1;" offset="0.769531"/><stop style="stop-color:#29279f;stop-opacity:1;" offset="0.773438"/><stop style="stop-color:#29289f;stop-opacity:1;" offset="0.777344"/><stop style="stop-color:#2928a0;stop-opacity:1;" offset="0.78125"/><stop style="stop-color:#2a28a1;stop-opacity:1;" offset="0.785156"/><stop style="stop-color:#2a28a2;stop-opacity:1;" offset="0.789062"/><stop style="stop-color:#2a28a3;stop-opacity:1;" offset="0.792969"/><stop style="stop-color:#2a29a3;stop-opacity:1;" offset="0.796875"/><stop style="stop-color:#2a29a4;stop-opacity:1;" offset="0.800781"/><stop style="stop-color:#2b29a5;stop-opacity:1;" offset="0.804688"/><stop style="stop-color:#2b29a6;stop-opacity:1;" offset="0.808594"/><stop style="stop-color:#2b29a7;stop-opacity:1;" offset="0.8125"/><stop style="stop-color:#2b2aa7;stop-opacity:1;" offset="0.816406"/><stop style="stop-color:#2c2aa8;stop-opacity:1;" offset="0.820313"/><stop style="stop-color:#2c2aa9;stop-opacity:1;" offset="0.824219"/><stop style="stop-color:#2c2aaa;stop-opacity:1;" offset="0.828125"/><stop style="stop-color:#2c2aab;stop-opacity:1;" offset="0.832031"/><stop style="stop-color:#2c2bab;stop-opacity:1;" offset="0.835938"/><stop style="stop-color:#2d2bac;stop-opacity:1;" offset="0.839844"/><stop style="stop-color:#2d2bad;stop-opacity:1;" offset="0.84375"/><stop style="stop-color:#2d2bae;stop-opacity:1;" offset="0.847656"/><stop style="stop-color:#2d2baf;stop-opacity:1;" offset="0.851562"/><stop style="stop-color:#2d2caf;stop-opacity:1;" offset="0.855469"/><stop style="stop-color:#2e2cb0;stop-opacity:1;" offset="0.859375"/><stop style="stop-color:#2e2cb1;stop-opacity:1;" offset="0.863281"/><stop style="stop-color:#2e2cb2;stop-opacity:1;" offset="0.867188"/><stop style="stop-color:#2e2cb3;stop-opacity:1;" offset="0.871094"/><stop style="stop-color:#2e2db3;stop-opacity:1;" offset="0.875"/><stop style="stop-color:#2f2db4;stop-opacity:1;" offset="0.878906"/><stop style="stop-color:#2f2db5;stop-opacity:1;" offset="0.882812"/><stop style="stop-color:#2f2db6;stop-opacity:1;" offset="0.886719"/><stop style="stop-color:#2f2db7;stop-opacity:1;" offset="0.890625"/><stop style="stop-color:#2f2eb7;stop-opacity:1;" offset="0.894531"/><stop style="stop-color:#302eb8;stop-opacity:1;" offset="0.898437"/><stop style="stop-color:#302eb9;stop-opacity:1;" offset="0.902344"/><stop style="stop-color:#302eba;stop-opacity:1;" offset="0.90625"/><stop style="stop-color:#302ebb;stop-opacity:1;" offset="0.910156"/><stop style="stop-color:#302fbb;stop-opacity:1;" offset="0.914063"/><stop style="stop-color:#312fbc;stop-opacity:1;" offset="0.917969"/><stop style="stop-color:#312fbd;stop-opacity:1;" offset="0.921875"/><stop style="stop-color:#312fbe;stop-opacity:1;" offset="0.925781"/><stop style="stop-color:#312fbf;stop-opacity:1;" offset="0.929688"/><stop style="stop-color:#3230bf;stop-opacity:1;" offset="0.933594"/><stop style="stop-color:#3230c0;stop-opacity:1;" offset="0.9375"/><stop style="stop-color:#3230c1;stop-opacity:1;" offset="0.941406"/><stop style="stop-color:#3230c2;stop-opacity:1;" offset="0.945312"/><stop style="stop-color:#3230c3;stop-opacity:1;" offset="0.949219"/><stop style="stop-color:#3331c3;stop-opacity:1;" offset="0.953125"/><stop style="stop-color:#3331c4;stop-opacity:1;" offset="0.957031"/><stop style="stop-color:#3331c5;stop-opacity:1;" offset="0.960938"/><stop style="stop-color:#3331c6;stop-opacity:1;" offset="0.964844"/><stop style="stop-color:#3331c7;stop-opacity:1;" offset="0.96875"/><stop style="stop-color:#3432c7;stop-opacity:1;" offset="0.972656"/><stop style="stop-color:#3432c8;stop-opacity:1;" offset="0.976562"/><stop style="stop-color:#3432c9;stop-opacity:1;" offset="0.980469"/><stop style="stop-color:#3432ca;stop-opacity:1;" offset="0.984375"/><stop style="stop-color:#3432cb;stop-opacity:1;" offset="0.988281"/><stop style="stop-color:#3533cb;stop-opacity:1;" offset="0.992187"/><stop style="stop-color:#3533cc;stop-opacity:1;" offset="0.996094"/><stop style="stop-color:#3533cd;stop-opacity:1;" offset="1"/></linearGradient><clipPath id="4f0e010355"><path d="M 77.746094 179.761719 L 297.613281 179.761719 L 297.613281 209.8125 L 77.746094 209.8125 Z M 77.746094 179.761719 "/></clipPath></defs><g id="faa23480c5"><g clip-rule="nonzero" clip-path="url(#d4e1843ce5)"><g clip-rule="nonzero" clip-path="url(#105ee8ec8b)"><path style=" stroke:none;fill-rule:nonzero;fill:url(#b49da52844);" d="M 77.746094 75.941406 L 77.746094 295.808594 L 297.613281 295.808594 L 297.613281 75.941406 Z M 77.746094 75.941406 "/></g></g><g style="fill:#ffffff;fill-opacity:1;"><g transform="translate(186.849207, 249.674866)"><path style="stroke:none" d="M 77.140625 -116.125 L 72.171875 -109.796875 C 70.117188 -110.941406 68.179688 -111.96875 66.359375 -112.875 C 64.535156 -113.789062 62.679688 -114.53125 60.796875 -115.09375 C 58.921875 -115.664062 56.925781 -116.09375 54.8125 -116.375 C 52.707031 -116.664062 50.285156 -116.8125 47.546875 -116.8125 C 41.960938 -116.8125 36.972656 -115.898438 32.578125 -114.078125 C 28.191406 -112.253906 24.457031 -109.800781 21.375 -106.71875 C 18.300781 -103.644531 15.960938 -100.113281 14.359375 -96.125 C 12.765625 -92.132812 11.96875 -87.914062 11.96875 -83.46875 C 11.96875 -77.425781 13.820312 -71.894531 17.53125 -66.875 C 21.238281 -61.851562 27.023438 -58.035156 34.890625 -55.421875 C 38.648438 -54.160156 41.84375 -53.128906 44.46875 -52.328125 C 47.09375 -51.535156 49.546875 -50.769531 51.828125 -50.03125 C 54.109375 -49.289062 56.414062 -48.488281 58.75 -47.625 C 61.082031 -46.769531 63.789062 -45.601562 66.875 -44.125 C 70.75 -42.300781 73.367188 -39.765625 74.734375 -36.515625 C 76.109375 -33.265625 76.796875 -29.988281 76.796875 -26.6875 C 76.796875 -22.582031 75.992188 -18.847656 74.390625 -15.484375 C 72.796875 -12.117188 70.6875 -9.296875 68.0625 -7.015625 C 65.445312 -4.734375 62.425781 -2.960938 59 -1.703125 C 55.582031 -0.453125 52.109375 0.171875 48.578125 0.171875 C 44.472656 0.171875 40.535156 -0.539062 36.765625 -1.96875 C 33.003906 -3.394531 29.523438 -5.414062 26.328125 -8.03125 C 23.140625 -10.65625 20.375 -13.90625 18.03125 -17.78125 C 15.695312 -21.664062 13.90625 -26 12.65625 -30.78125 C 12.3125 -32.269531 11.6875 -33.015625 10.78125 -33.015625 C 9.976562 -33.015625 9.578125 -32.210938 9.578125 -30.609375 L 9.578125 0 C 9.578125 1.476562 10.085938 2.21875 11.109375 2.21875 C 11.796875 2.21875 12.539062 1.648438 13.34375 0.515625 L 19.5 -8.375 C 20.863281 -7.125 22.539062 -5.8125 24.53125 -4.4375 C 26.53125 -3.070312 28.753906 -1.816406 31.203125 -0.671875 C 33.660156 0.460938 36.285156 1.398438 39.078125 2.140625 C 41.867188 2.878906 44.75 3.25 47.71875 3.25 C 53.1875 3.25 58.257812 2.25 62.9375 0.25 C 67.613281 -1.738281 71.660156 -4.5 75.078125 -8.03125 C 78.503906 -11.570312 81.210938 -15.765625 83.203125 -20.609375 C 85.203125 -25.453125 86.203125 -30.671875 86.203125 -36.265625 C 86.203125 -43.898438 84.40625 -50.367188 80.8125 -55.671875 C 77.21875 -60.972656 71.546875 -64.765625 63.796875 -67.046875 C 61.171875 -67.835938 58.71875 -68.519531 56.4375 -69.09375 C 54.15625 -69.664062 51.816406 -70.289062 49.421875 -70.96875 C 47.035156 -71.65625 44.53125 -72.425781 41.90625 -73.28125 C 39.28125 -74.132812 36.375 -75.191406 33.1875 -76.453125 C 29.644531 -77.816406 26.960938 -79.925781 25.140625 -82.78125 C 23.316406 -85.632812 22.40625 -88.941406 22.40625 -92.703125 C 22.40625 -96.234375 23.144531 -99.335938 24.625 -102.015625 C 26.113281 -104.703125 28.023438 -106.898438 30.359375 -108.609375 C 32.691406 -110.316406 35.367188 -111.597656 38.390625 -112.453125 C 41.410156 -113.304688 44.460938 -113.734375 47.546875 -113.734375 C 52.222656 -113.734375 56.328125 -112.9375 59.859375 -111.34375 C 63.390625 -109.75 66.351562 -107.640625 68.75 -105.015625 C 71.144531 -102.390625 73.054688 -99.363281 74.484375 -95.9375 C 75.910156 -92.519531 76.851562 -88.988281 77.3125 -85.34375 C 77.425781 -84.207031 77.9375 -83.640625 78.84375 -83.640625 C 79.644531 -83.640625 80.046875 -84.207031 80.046875 -85.34375 L 80.046875 -115.78125 C 80.046875 -116.925781 79.703125 -117.5 79.015625 -117.5 C 78.441406 -117.5 77.816406 -117.039062 77.140625 -116.125 Z M 77.140625 -116.125 "/></g></g><g style="fill:#ffffff;fill-opacity:1;"><g transform="translate(90.208285, 251.655159)"><path style="stroke:none" d="M 48.8125 -116.75 L 1.90625 -116.75 L 1.90625 -113.96875 L 16.859375 -113.96875 L 55.9375 1.734375 L 59.0625 1.734375 L 96.25 -113.96875 L 108.75 -113.96875 L 108.75 -116.75 L 77.65625 -116.75 L 77.65625 -113.96875 L 92.59375 -113.96875 L 63.765625 -24.15625 L 33.1875 -113.96875 L 48.8125 -113.96875 Z M 48.8125 -116.75 "/></g></g><g clip-rule="nonzero" clip-path="url(#4f0e010355)"><path style=" stroke:none;fill-rule:nonzero;fill:#fafafa;fill-opacity:1;" d="M 77.746094 179.761719 L 297.609375 179.761719 L 297.609375 209.8125 L 77.746094 209.8125 Z M 77.746094 179.761719 "/></g><g style="fill:#000b3d;fill-opacity:1;"><g transform="translate(87.636224, 198.030162)"><path style="stroke:none" d="M 10.15625 -9.40625 L 6.09375 0 L 3.9375 0 L -0.125 -9.40625 L 2.234375 -9.40625 L 5.09375 -2.6875 L 8 -9.40625 Z M 10.15625 -9.40625 "/></g></g><g style="fill:#000b3d;fill-opacity:1;"><g transform="translate(102.305649, 198.030162)"><path style="stroke:none" d="M 7.109375 0 L 5.296875 -2.625 L 3.296875 -2.625 L 3.296875 0 L 1.109375 0 L 1.109375 -9.40625 L 5.1875 -9.40625 C 6.019531 -9.40625 6.742188 -9.265625 7.359375 -8.984375 C 7.972656 -8.710938 8.441406 -8.320312 8.765625 -7.8125 C 9.097656 -7.300781 9.265625 -6.695312 9.265625 -6 C 9.265625 -5.289062 9.097656 -4.679688 8.765625 -4.171875 C 8.429688 -3.671875 7.957031 -3.289062 7.34375 -3.03125 L 9.453125 0 Z M 7.0625 -6 C 7.0625 -6.519531 6.890625 -6.921875 6.546875 -7.203125 C 6.210938 -7.484375 5.71875 -7.625 5.0625 -7.625 L 3.296875 -7.625 L 3.296875 -4.359375 L 5.0625 -4.359375 C 5.71875 -4.359375 6.210938 -4.5 6.546875 -4.78125 C 6.890625 -5.070312 7.0625 -5.476562 7.0625 -6 Z M 7.0625 -6 "/></g></g><g style="fill:#000b3d;fill-opacity:1;"><g transform="translate(116.827353, 198.030162)"><path style="stroke:none" d="M 5.296875 0.15625 C 3.953125 0.15625 2.90625 -0.210938 2.15625 -0.953125 C 1.40625 -1.691406 1.03125 -2.753906 1.03125 -4.140625 L 1.03125 -9.40625 L 3.21875 -9.40625 L 3.21875 -4.21875 C 3.21875 -2.53125 3.914062 -1.6875 5.3125 -1.6875 C 5.988281 -1.6875 6.503906 -1.890625 6.859375 -2.296875 C 7.222656 -2.710938 7.40625 -3.351562 7.40625 -4.21875 L 7.40625 -9.40625 L 9.546875 -9.40625 L 9.546875 -4.140625 C 9.546875 -2.753906 9.171875 -1.691406 8.421875 -0.953125 C 7.679688 -0.210938 6.640625 0.15625 5.296875 0.15625 Z M 5.296875 0.15625 "/></g></g><g style="fill:#000b3d;fill-opacity:1;"><g transform="translate(132.060824, 198.030162)"><path style="stroke:none" d="M 4.203125 0.15625 C 3.460938 0.15625 2.742188 0.0546875 2.046875 -0.140625 C 1.359375 -0.335938 0.800781 -0.597656 0.375 -0.921875 L 1.109375 -2.5625 C 1.515625 -2.269531 1.992188 -2.03125 2.546875 -1.84375 C 3.109375 -1.664062 3.664062 -1.578125 4.21875 -1.578125 C 4.832031 -1.578125 5.285156 -1.671875 5.578125 -1.859375 C 5.878906 -2.046875 6.03125 -2.289062 6.03125 -2.59375 C 6.03125 -2.8125 5.941406 -2.992188 5.765625 -3.140625 C 5.597656 -3.296875 5.375 -3.414062 5.09375 -3.5 C 4.820312 -3.59375 4.453125 -3.691406 3.984375 -3.796875 C 3.273438 -3.972656 2.691406 -4.144531 2.234375 -4.3125 C 1.773438 -4.476562 1.378906 -4.75 1.046875 -5.125 C 0.722656 -5.507812 0.5625 -6.015625 0.5625 -6.640625 C 0.5625 -7.179688 0.707031 -7.671875 1 -8.109375 C 1.300781 -8.554688 1.75 -8.910156 2.34375 -9.171875 C 2.9375 -9.429688 3.664062 -9.5625 4.53125 -9.5625 C 5.125 -9.5625 5.707031 -9.488281 6.28125 -9.34375 C 6.863281 -9.207031 7.367188 -9.003906 7.796875 -8.734375 L 7.125 -7.078125 C 6.25 -7.578125 5.378906 -7.828125 4.515625 -7.828125 C 3.898438 -7.828125 3.445312 -7.726562 3.15625 -7.53125 C 2.875 -7.332031 2.734375 -7.070312 2.734375 -6.75 C 2.734375 -6.425781 2.898438 -6.1875 3.234375 -6.03125 C 3.566406 -5.875 4.078125 -5.71875 4.765625 -5.5625 C 5.484375 -5.394531 6.070312 -5.222656 6.53125 -5.046875 C 6.988281 -4.878906 7.378906 -4.613281 7.703125 -4.25 C 8.035156 -3.882812 8.203125 -3.382812 8.203125 -2.75 C 8.203125 -2.21875 8.050781 -1.726562 7.75 -1.28125 C 7.445312 -0.84375 6.992188 -0.492188 6.390625 -0.234375 C 5.796875 0.0234375 5.066406 0.15625 4.203125 0.15625 Z M 4.203125 0.15625 "/></g></g><g style="fill:#000b3d;fill-opacity:1;"><g transform="translate(145.279847, 198.030162)"><path style="stroke:none" d="M 9.75 -9.40625 L 9.75 0 L 7.5625 0 L 7.5625 -3.859375 L 3.296875 -3.859375 L 3.296875 0 L 1.109375 0 L 1.109375 -9.40625 L 3.296875 -9.40625 L 3.296875 -5.703125 L 7.5625 -5.703125 L 7.5625 -9.40625 Z M 9.75 -9.40625 "/></g></g><g style="fill:#000b3d;fill-opacity:1;"><g transform="translate(160.78191, 198.030162)"><path style="stroke:none" d="M 7.3125 -2.015625 L 2.9375 -2.015625 L 2.109375 0 L -0.125 0 L 4.078125 -9.40625 L 6.21875 -9.40625 L 10.421875 0 L 8.140625 0 Z M 6.625 -3.671875 L 5.140625 -7.265625 L 3.640625 -3.671875 Z M 6.625 -3.671875 "/></g></g><g style="fill:#000b3d;fill-opacity:1;"><g transform="translate(175.719927, 198.030162)"><path style="stroke:none" d="M 8.015625 -4.890625 C 8.554688 -4.722656 8.976562 -4.4375 9.28125 -4.03125 C 9.59375 -3.632812 9.75 -3.144531 9.75 -2.5625 C 9.75 -1.738281 9.425781 -1.101562 8.78125 -0.65625 C 8.144531 -0.21875 7.210938 0 5.984375 0 L 1.109375 0 L 1.109375 -9.40625 L 5.71875 -9.40625 C 6.863281 -9.40625 7.738281 -9.1875 8.34375 -8.75 C 8.957031 -8.3125 9.265625 -7.710938 9.265625 -6.953125 C 9.265625 -6.503906 9.15625 -6.097656 8.9375 -5.734375 C 8.71875 -5.378906 8.410156 -5.097656 8.015625 -4.890625 Z M 3.28125 -7.765625 L 3.28125 -5.546875 L 5.4375 -5.546875 C 5.976562 -5.546875 6.382812 -5.640625 6.65625 -5.828125 C 6.9375 -6.015625 7.078125 -6.296875 7.078125 -6.671875 C 7.078125 -7.035156 6.9375 -7.304688 6.65625 -7.484375 C 6.382812 -7.671875 5.976562 -7.765625 5.4375 -7.765625 Z M 5.8125 -1.640625 C 6.382812 -1.640625 6.816406 -1.734375 7.109375 -1.921875 C 7.398438 -2.109375 7.546875 -2.398438 7.546875 -2.796875 C 7.546875 -3.578125 6.96875 -3.96875 5.8125 -3.96875 L 3.28125 -3.96875 L 3.28125 -1.640625 Z M 5.8125 -1.640625 "/></g></g><g style="fill:#000b3d;fill-opacity:1;"><g transform="translate(190.644521, 198.030162)"><path style="stroke:none" d="M 9.75 -9.40625 L 9.75 0 L 7.5625 0 L 7.5625 -3.859375 L 3.296875 -3.859375 L 3.296875 0 L 1.109375 0 L 1.109375 -9.40625 L 3.296875 -9.40625 L 3.296875 -5.703125 L 7.5625 -5.703125 L 7.5625 -9.40625 Z M 9.75 -9.40625 "/></g></g><g style="fill:#000b3d;fill-opacity:1;"><g transform="translate(206.146584, 198.030162)"><path style="stroke:none" d=""/></g></g><g style="fill:#000b3d;fill-opacity:1;"><g transform="translate(214.598091, 198.030162)"><path style="stroke:none" d="M 4.203125 0.15625 C 3.460938 0.15625 2.742188 0.0546875 2.046875 -0.140625 C 1.359375 -0.335938 0.800781 -0.597656 0.375 -0.921875 L 1.109375 -2.5625 C 1.515625 -2.269531 1.992188 -2.03125 2.546875 -1.84375 C 3.109375 -1.664062 3.664062 -1.578125 4.21875 -1.578125 C 4.832031 -1.578125 5.285156 -1.671875 5.578125 -1.859375 C 5.878906 -2.046875 6.03125 -2.289062 6.03125 -2.59375 C 6.03125 -2.8125 5.941406 -2.992188 5.765625 -3.140625 C 5.597656 -3.296875 5.375 -3.414062 5.09375 -3.5 C 4.820312 -3.59375 4.453125 -3.691406 3.984375 -3.796875 C 3.273438 -3.972656 2.691406 -4.144531 2.234375 -4.3125 C 1.773438 -4.476562 1.378906 -4.75 1.046875 -5.125 C 0.722656 -5.507812 0.5625 -6.015625 0.5625 -6.640625 C 0.5625 -7.179688 0.707031 -7.671875 1 -8.109375 C 1.300781 -8.554688 1.75 -8.910156 2.34375 -9.171875 C 2.9375 -9.429688 3.664062 -9.5625 4.53125 -9.5625 C 5.125 -9.5625 5.707031 -9.488281 6.28125 -9.34375 C 6.863281 -9.207031 7.367188 -9.003906 7.796875 -8.734375 L 7.125 -7.078125 C 6.25 -7.578125 5.378906 -7.828125 4.515625 -7.828125 C 3.898438 -7.828125 3.445312 -7.726562 3.15625 -7.53125 C 2.875 -7.332031 2.734375 -7.070312 2.734375 -6.75 C 2.734375 -6.425781 2.898438 -6.1875 3.234375 -6.03125 C 3.566406 -5.875 4.078125 -5.71875 4.765625 -5.5625 C 5.484375 -5.394531 6.070312 -5.222656 6.53125 -5.046875 C 6.988281 -4.878906 7.378906 -4.613281 7.703125 -4.25 C 8.035156 -3.882812 8.203125 -3.382812 8.203125 -2.75 C 8.203125 -2.21875 8.050781 -1.726562 7.75 -1.28125 C 7.445312 -0.84375 6.992188 -0.492188 6.390625 -0.234375 C 5.796875 0.0234375 5.066406 0.15625 4.203125 0.15625 Z M 4.203125 0.15625 "/></g></g><g style="fill:#000b3d;fill-opacity:1;"><g transform="translate(227.817114, 198.030162)"><path style="stroke:none" d="M 9.75 -9.40625 L 9.75 0 L 7.5625 0 L 7.5625 -3.859375 L 3.296875 -3.859375 L 3.296875 0 L 1.109375 0 L 1.109375 -9.40625 L 3.296875 -9.40625 L 3.296875 -5.703125 L 7.5625 -5.703125 L 7.5625 -9.40625 Z M 9.75 -9.40625 "/></g></g><g style="fill:#000b3d;fill-opacity:1;"><g transform="translate(243.319177, 198.030162)"><path style="stroke:none" d="M 1.109375 -9.40625 L 3.296875 -9.40625 L 3.296875 0 L 1.109375 0 Z M 1.109375 -9.40625 "/></g></g><g style="fill:#000b3d;fill-opacity:1;"><g transform="translate(252.375012, 198.030162)"><path style="stroke:none" d="M 7.109375 0 L 5.296875 -2.625 L 3.296875 -2.625 L 3.296875 0 L 1.109375 0 L 1.109375 -9.40625 L 5.1875 -9.40625 C 6.019531 -9.40625 6.742188 -9.265625 7.359375 -8.984375 C 7.972656 -8.710938 8.441406 -8.320312 8.765625 -7.8125 C 9.097656 -7.300781 9.265625 -6.695312 9.265625 -6 C 9.265625 -5.289062 9.097656 -4.679688 8.765625 -4.171875 C 8.429688 -3.671875 7.957031 -3.289062 7.34375 -3.03125 L 9.453125 0 Z M 7.0625 -6 C 7.0625 -6.519531 6.890625 -6.921875 6.546875 -7.203125 C 6.210938 -7.484375 5.71875 -7.625 5.0625 -7.625 L 3.296875 -7.625 L 3.296875 -4.359375 L 5.0625 -4.359375 C 5.71875 -4.359375 6.210938 -4.5 6.546875 -4.78125 C 6.890625 -5.070312 7.0625 -5.476562 7.0625 -6 Z M 7.0625 -6 "/></g></g><g style="fill:#000b3d;fill-opacity:1;"><g transform="translate(266.896717, 198.030162)"><path style="stroke:none" d="M 4.546875 -3.703125 L 3.28125 -2.375 L 3.28125 0 L 1.109375 0 L 1.109375 -9.40625 L 3.28125 -9.40625 L 3.28125 -5.015625 L 7.4375 -9.40625 L 9.859375 -9.40625 L 5.96875 -5.21875 L 10.09375 0 L 7.546875 0 Z M 4.546875 -3.703125 "/></g></g><g style="fill:#000b3d;fill-opacity:1;"><g transform="translate(281.485575, 198.030162)"><path style="stroke:none" d="M 8.40625 -1.75 L 8.40625 0 L 1.109375 0 L 1.109375 -9.40625 L 8.21875 -9.40625 L 8.21875 -7.65625 L 3.28125 -7.65625 L 3.28125 -5.609375 L 7.640625 -5.609375 L 7.640625 -3.921875 L 3.28125 -3.921875 L 3.28125 -1.75 Z M 8.40625 -1.75 "/></g></g></g></svg>